<svg width="96" height="42" viewBox="0 0 96 42" fill="none" xmlns="http://www.w3.org/2000/svg">
<path d="M34.5629 28.5926C34.9872 28.6146 35.4807 28.6832 35.936 28.8807L36.183 29.0037C36.7339 29.3145 37.1784 29.8362 37.3344 30.6199L37.3559 30.6941C37.3778 30.7447 37.4317 30.8332 37.5649 30.992L37.8705 31.3504C37.9629 31.4637 38.0601 31.5908 38.144 31.7225L38.2221 31.8553L38.228 31.865L38.2329 31.8748L38.2924 31.9959L38.2963 32.0047L38.3012 32.0135C38.3698 32.1676 38.4135 32.3153 38.4448 32.4314L38.4985 32.6453L38.5385 32.8006L38.562 32.8738L38.9799 33.0975C39.4534 33.3372 39.9581 33.5551 40.4448 33.74L40.5004 33.7586C40.648 33.7993 40.8636 33.811 41.1909 33.7869L41.77 33.7312C41.9943 33.71 42.2325 33.6913 42.4301 33.6912H44.7778L45.0444 33.6893C45.3318 33.693 45.7261 33.7322 46.1362 33.9715L46.2485 34.0418L46.2661 34.0535L46.2827 34.0672L46.4135 34.1717L46.4272 34.1834L46.4409 34.1961C46.6077 34.3515 46.7204 34.5211 46.7885 34.6297L46.9096 34.8318C46.9344 34.8738 46.949 34.8966 46.9643 34.9178L47.1284 35.1277L47.2387 35.2732L47.3481 35.4324L47.353 35.4393L47.3579 35.4471L47.4506 35.6062L47.4555 35.6141L47.4594 35.6219C47.6973 36.0615 47.8011 36.5054 47.8715 36.8621L47.9799 37.4305C48.0131 37.5912 48.0486 37.7322 48.101 37.8768L48.1743 38.0652C48.3579 38.5024 48.6078 38.8792 48.9018 39.1502L49.0893 39.3143C49.2884 39.479 49.4247 39.5554 49.52 39.5857C49.5959 39.6097 49.6505 39.6071 49.7202 39.5779L49.9516 39.4754C50.1856 39.3685 50.4228 39.2499 50.6713 39.1219L51.1772 38.8611C51.3519 38.7725 51.5325 38.684 51.7143 38.5994L52.4506 38.2566C52.6541 38.1543 52.8174 38.0559 52.9545 37.9402L53.0405 37.8592C53.0735 37.826 53.1104 37.788 53.1547 37.741L53.3051 37.5848C53.3638 37.5261 53.4308 37.4625 53.5024 37.4021L53.5092 37.3963L53.6733 37.2635L53.6811 37.2566L54.0024 37.0203C54.3275 36.7944 54.6604 36.5986 54.9575 36.4285L54.9692 36.4217L54.9809 36.4158L55.1538 36.3279L55.1664 36.3221L55.1782 36.3172C55.7069 36.0858 56.1989 36.1141 56.5952 36.199L56.8959 36.2762C56.9907 36.3036 57.0785 36.332 57.1508 36.3543L57.3637 36.4168C57.4241 36.4333 57.4795 36.4456 57.5327 36.4559L57.6098 36.4646C57.6679 36.4657 57.7391 36.4536 57.8715 36.3982C58.0273 36.3331 58.1853 36.2473 58.4672 36.1121L58.5639 36.0594C58.6102 36.0326 58.6639 36.0006 58.7368 35.9568L58.9565 35.8269C59.0378 35.7807 59.1265 35.7329 59.2172 35.6883L59.3618 35.6209C59.5156 35.5539 59.6974 35.4897 59.894 35.4549L60.1098 35.4305C60.3386 35.4182 60.6039 35.4502 60.8686 35.5828L61.184 35.74C61.3194 35.8042 61.3979 35.8328 61.4516 35.8445C61.4924 35.8534 61.5183 35.8519 61.5512 35.8435L61.5571 35.8426L61.9116 35.7566L61.9223 35.7537C62.2963 35.672 62.6637 35.6209 63.1098 35.6209L63.5151 35.616C63.9612 35.6105 64.518 35.6159 65.0424 35.742L65.9321 35.9539C66.0741 35.9856 66.2164 36.015 66.3569 36.0418L66.7807 36.1141L66.7836 36.115L67.1059 36.1648L67.2543 36.1951C67.6066 36.2757 68.0326 36.4405 68.3969 36.8504L68.4946 36.95C68.6384 37.0793 68.821 37.1495 69.1459 37.1541L69.394 37.1502C69.8571 37.1267 70.2796 37.0162 70.6733 36.8006L70.8413 36.701L71.1606 36.491C71.281 36.4063 71.3383 36.3533 71.3686 36.3152C71.3882 36.2906 71.3971 36.2693 71.4038 36.2322L71.4077 36.157L71.3989 36.0213C71.3935 35.9709 71.3825 35.8895 71.3735 35.7947L71.3569 35.4871C71.3569 35.4083 71.3611 35.3287 71.3637 35.2752L71.3696 35.1316L71.3676 35.0916C71.3374 35.0148 71.2993 34.9307 71.2455 34.825L71.019 34.3768C70.8702 34.0678 70.6649 33.5959 70.6733 33.0662V33.0476L70.6801 32.9295V32.9226L70.6811 32.9148C70.7092 32.5711 70.8093 32.2734 70.9106 32.035L71.0844 31.6658C71.1452 31.5439 71.2016 31.4353 71.2299 31.3758L71.2719 31.2781L71.2758 31.2703L71.3246 31.1697C71.3437 31.1331 71.3658 31.0934 71.3911 31.0525L71.4663 30.949C71.6561 30.7293 71.9279 30.6678 72.1547 30.6961C72.3938 30.7261 72.6104 30.8519 72.7621 31.0144L73.0082 31.2771L73.0522 31.3318C73.2148 31.5659 73.1743 31.8634 73.0014 32.0584L72.9457 32.1814L72.9418 32.1883C72.8712 32.337 72.8217 32.4326 72.7788 32.5164L72.6557 32.7762C72.6074 32.89 72.5833 32.9711 72.5737 33.034L72.5688 33.1033C72.5701 33.1617 72.5994 33.2895 72.727 33.5545L72.9389 33.9734C72.9808 34.0576 73.0236 34.1459 73.0629 34.2332L73.1674 34.4881L73.1733 34.5047L73.1782 34.5223L73.2163 34.656L73.2202 34.6717L73.2241 34.6863C73.244 34.7792 73.2546 34.8689 73.2602 34.949L73.2651 35.157L73.2573 35.368C73.2545 35.4235 73.2534 35.4599 73.2534 35.4871L73.2836 35.8211L73.3012 36.032C73.3055 36.1118 73.3066 36.2001 73.3022 36.2928V36.3045L73.3012 36.3162L73.2866 36.4646L73.2856 36.4764L73.2836 36.4881C73.165 37.3193 72.6211 37.7902 72.2163 38.0691L72.2045 38.0769L71.8657 38.2957L71.8627 38.2976C71.109 38.7791 70.3016 39.0027 69.477 39.0428H69.4623L69.1401 39.0496H69.1245C68.4236 39.0406 67.6953 38.8475 67.0971 38.2342L67.0873 38.2244L66.9926 38.1228L66.9877 38.117L66.9819 38.1101C66.9609 38.0861 66.9514 38.0814 66.9418 38.0769C66.9209 38.0673 66.8764 38.052 66.769 38.032L66.4946 37.9871C66.1587 37.9367 65.8347 37.8722 65.5219 37.8025L65.5151 37.8016L64.602 37.5848L64.6 37.5838C64.3934 37.5339 64.1862 37.517 63.9487 37.5125L63.1098 37.5154C62.8301 37.5155 62.6024 37.5453 62.3276 37.6053L62.0131 37.6814L62.0121 37.6805C61.3204 37.8542 60.7352 37.6299 60.3491 37.4441L60.3393 37.4393L60.1528 37.3445L60.0541 37.3885C60.0037 37.4133 59.9509 37.4415 59.895 37.4734L59.7133 37.5809C59.6539 37.6165 59.5839 37.6587 59.5141 37.699L59.5082 37.7029L59.5014 37.7059L59.308 37.8103L59.2983 37.8152L59.2875 37.8201C58.9662 37.9743 58.2369 38.4381 57.3676 38.3465L57.3569 38.3455L57.3461 38.3435L57.2065 38.323L57.1967 38.3211L57.1879 38.3201C57.0743 38.2986 56.9644 38.2713 56.8637 38.2439L56.5903 38.1639C56.4142 38.1095 56.303 38.0744 56.1967 38.0516C56.0473 38.0196 55.9903 38.0302 55.9409 38.0516L55.8911 38.0769C55.5703 38.2607 55.2647 38.4441 54.9936 38.6404L54.7241 38.8514L54.5356 39.0398C54.4952 39.0827 54.443 39.138 54.3862 39.1951L54.3735 39.2078L54.2075 39.3631L54.1996 39.3709L54.1909 39.3777C53.8729 39.6485 53.5104 39.8503 53.185 40.0086L52.8745 40.1541L52.5082 40.3191C52.3505 40.3926 52.195 40.4699 52.0366 40.5506L51.5395 40.8064C51.2869 40.9365 51.0192 41.0728 50.7407 41.2L50.7338 41.2029L50.4633 41.3211L50.4565 41.325C49.3285 41.7992 48.4076 41.2178 47.85 40.7498L47.8403 40.741L47.6264 40.5525L47.6196 40.5457C47.0839 40.0532 46.6918 39.4321 46.4252 38.7967L46.4204 38.785L46.3227 38.533L46.3178 38.5223C46.2328 38.2877 46.172 38.0432 46.1245 37.8182L46.0112 37.2293C45.9498 36.9185 45.8887 36.7044 45.7934 36.5271L45.7485 36.45L45.6391 36.2996L45.6352 36.2957L45.4526 36.0613L45.4448 36.0516C45.3924 35.9809 45.3332 35.8864 45.2836 35.8055L45.1821 35.6365C45.1713 35.6193 45.1619 35.6051 45.1547 35.5945C45.1517 35.5939 45.1463 35.5935 45.1391 35.5926C45.1169 35.5897 45.0814 35.5877 45.019 35.5867L44.7778 35.5857H42.4301C42.2864 35.5858 42.1376 35.5986 41.9565 35.617L41.3295 35.6766C40.9516 35.7044 40.4632 35.7167 39.9809 35.5809L39.9594 35.575L39.7905 35.5184L39.7797 35.5154L39.77 35.5115C39.227 35.3052 38.6594 35.0587 38.1176 34.784L38.1079 34.7791L37.5942 34.5047L37.5834 34.4998C37.0738 34.2126 36.8608 33.7691 36.7543 33.4461L36.7143 33.3152L36.6567 33.0926L36.6137 32.9236C36.6018 32.8796 36.5912 32.8468 36.5825 32.8221L36.5522 32.7547C36.5151 32.6901 36.4713 32.6314 36.4067 32.5545L36.1118 32.2088C35.9307 31.9929 35.6591 31.6521 35.5278 31.2068L35.5248 31.1941L35.5209 31.1824L35.4858 31.033L35.4819 31.0193L35.4799 31.0057C35.4554 30.8711 35.4137 30.7976 35.3764 30.7527C35.3571 30.7297 35.3326 30.7064 35.3012 30.6844L35.1811 30.6189C34.9503 30.5189 34.6058 30.4774 34.1645 30.4773C33.8104 30.4775 33.431 30.5892 32.9428 30.7674L32.9418 30.7664L32.4409 30.9539C32.2765 31.0148 32.0859 31.0771 31.9047 31.1355L31.4174 31.2937C31.1888 31.3714 30.9921 31.4471 30.8198 31.534L30.6323 31.6394C30.5645 31.6802 30.497 31.7159 30.436 31.7459L30.269 31.823C30.2557 31.8289 30.243 31.8347 30.2319 31.8396C30.1467 32.6086 30.1071 33.391 30.1577 34.1316L30.1879 34.4715L30.1889 34.4832L30.2182 34.8299L30.2192 34.8416C30.2406 35.2049 30.2387 35.563 30.2387 35.8826L30.2455 36.5057C30.2488 36.6033 30.2544 36.6985 30.2612 36.7918L30.2895 37.076L30.3256 37.4158L30.3266 37.4246L30.35 37.7361C30.3945 38.4636 30.3754 39.2023 30.3754 39.8328V39.8416L30.3764 39.9031L30.3784 40.0857L30.3676 40.3289C30.3655 40.3488 30.3623 40.3815 30.3549 40.4217L30.3198 40.5603C30.3048 40.6072 30.2651 40.7253 30.1733 40.8494C30.0952 40.9546 29.8931 41.1732 29.5571 41.2264L29.4038 41.2381C28.1939 41.2379 27.3281 40.5863 26.686 40.0184L26.6811 40.0144L26.4204 39.7791L26.4174 39.7762C26.3515 39.7155 26.2872 39.6511 26.227 39.5896L26.06 39.4158L25.7885 39.1414C25.678 39.0409 25.6149 39.0078 25.5883 38.9969L25.5512 38.9891C25.0466 38.9455 24.5364 39.0109 23.9575 39.1297L23.9565 39.1287L23.35 39.2635L23.351 39.2644C22.9762 39.3511 22.5204 39.4432 22.0463 39.4139L21.8422 39.3934C21.3851 39.3296 20.9613 39.1464 20.5795 38.826L20.4184 38.6805L20.4047 38.6668L20.2573 38.5115L20.2504 38.5037L20.2436 38.4969C19.9462 38.1581 19.6193 37.706 19.4125 37.1863L19.3315 36.9598C19.1294 36.317 19.12 35.5298 19.6293 34.8064L19.6313 34.8025L19.6674 34.7527C19.6528 34.7338 19.6366 34.7113 19.6166 34.6873L19.4672 34.5154C19.3043 34.3347 18.9855 34.0036 18.7934 33.5789L18.7875 33.5662L18.7827 33.5545L18.7241 33.4041L18.7192 33.3924L18.7153 33.3807C18.6593 33.2127 18.6135 33.0171 18.5873 32.8133L18.5678 32.6072C18.5529 32.3448 18.5697 31.9826 18.7241 31.6394L18.728 31.6307L18.7319 31.6228L18.7729 31.5418L18.7768 31.532L18.7827 31.5232L18.8422 31.4217C19.1563 30.9341 19.6659 30.6995 19.9907 30.5799L20.1713 30.5174C20.2309 30.4985 20.2906 30.4817 20.3481 30.4656L20.4731 30.4412C20.7234 30.4126 20.9783 30.5023 21.1547 30.6853L21.2368 30.785L21.3032 30.8992C21.4354 31.1686 21.4114 31.4664 21.3344 31.6873C21.2573 31.9086 21.0927 32.1529 20.8295 32.285L20.7104 32.3338L20.6459 32.3562C20.5574 32.3889 20.4989 32.4192 20.4623 32.4412C20.462 32.4574 20.4601 32.4771 20.4614 32.4998L20.4809 32.6512C20.4904 32.6996 20.5029 32.7446 20.5151 32.781L20.5268 32.8103C20.5661 32.8933 20.6502 32.997 20.8754 33.2469L21.0541 33.449C21.2558 33.6878 21.5039 34.0343 21.6049 34.4695L21.6059 34.4705L21.6332 34.6336C21.6615 34.899 21.6069 35.1303 21.5366 35.3084L21.4487 35.4949C21.4219 35.5443 21.3925 35.5932 21.3637 35.6375L21.2827 35.7557L21.2797 35.7596L21.1791 35.8963L21.1801 35.8973C21.0944 36.019 21.0663 36.1565 21.1401 36.3914L21.1762 36.493C21.2726 36.7324 21.4498 36.9957 21.6684 37.2449L21.7387 37.3211L21.8413 37.409C21.9384 37.4802 22.0217 37.505 22.103 37.5164L22.2455 37.5252C22.4029 37.5233 22.6126 37.4896 22.9233 37.4178L22.9282 37.4168L23.5629 37.2762L23.5707 37.2752L24.0825 37.1805C24.5195 37.1103 24.9822 37.0665 25.4633 37.0857L25.7543 37.1053L25.768 37.1062L25.7827 37.1092L25.9428 37.1336L25.9575 37.1355L25.9711 37.1385C26.4601 37.2426 26.8234 37.5212 27.0659 37.742L27.267 37.9363C27.3296 37.9997 27.3878 38.0609 27.4389 38.115L27.6977 38.3787L27.9526 38.6092C28.1445 38.7777 28.3182 38.9144 28.4809 39.0232C28.4827 38.5277 28.4798 38.0576 28.4389 37.5994L28.4067 37.2986C28.3754 37.0523 28.359 36.806 28.351 36.5691L28.3432 35.8826C28.3432 35.546 28.3436 35.2452 28.3266 34.9549L28.3032 34.6746L28.267 34.2644C28.2012 33.3036 28.261 32.3269 28.3696 31.4285L28.3705 31.4139L28.3735 31.4002L28.3979 31.2635L28.4008 31.2469L28.4047 31.2312C28.4529 31.0357 28.5369 30.8536 28.6577 30.6922L28.7788 30.5506C28.9029 30.4221 29.0338 30.332 29.142 30.2684L29.3422 30.1629C29.4042 30.1334 29.4592 30.1102 29.4965 30.0935L29.6557 30.0154L29.6645 30.0096L29.9506 29.8504C30.2442 29.701 30.5401 29.5914 30.8071 29.5008L31.3256 29.3318L31.7797 29.1775L32.2739 28.993L32.2768 28.992L32.6967 28.8465C33.1387 28.7043 33.6436 28.5829 34.1655 28.5828L34.5629 28.5926Z" fill="url(#paint0_linear_214_5971)"/>
<path fill-rule="evenodd" clip-rule="evenodd" d="M53.6215 0.624799C54.1279 0.493134 54.7516 0.416331 55.4145 0.65019L55.5854 0.716596L55.602 0.725385L55.7592 0.80644L55.7768 0.815229L55.7924 0.825971C56.2988 1.13798 56.4744 1.62709 56.5375 1.98222L56.5717 2.25664C56.579 2.34252 56.5833 2.42086 56.5864 2.48417L56.6039 2.76347L56.6118 2.79667L56.6137 2.79863C56.6168 2.80257 56.6261 2.81437 56.6489 2.83085C56.6988 2.86683 56.7936 2.9139 56.9633 2.9666L57.0825 2.9998C57.3362 3.05828 57.6133 3.05968 57.9526 3.02226L58.2563 2.98222C58.3605 2.96672 58.4695 2.94916 58.5844 2.93046L58.937 2.8748C59.0598 2.85658 59.1874 2.83985 59.3159 2.82597L59.3286 2.82402L59.3422 2.82304L59.4379 2.81816L59.4506 2.81718H59.4633C60.2032 2.81443 60.6218 3.38584 60.7719 3.61015L60.9125 3.83964C60.9543 3.913 60.9911 3.98059 61.02 4.03398L61.1332 4.23515L61.2944 4.45292C61.3499 4.52404 61.4072 4.59263 61.4633 4.6541L61.6088 4.7957C61.6839 4.78299 61.7785 4.75444 61.9291 4.70195L62.1127 4.63261C62.5311 4.46476 62.9934 4.21124 63.3969 3.94902L63.686 3.7498C63.7933 3.67523 63.9219 3.58867 64.061 3.50761L64.2934 3.38456C64.5028 3.28496 64.752 3.19883 65.0375 3.16874L65.2133 3.15703L65.52 3.13554C65.652 3.12503 65.8248 3.1133 66.0034 3.11699L66.1371 3.12285C66.4532 3.1442 66.9192 3.234 67.2875 3.60234L67.3705 3.69218L67.3803 3.70292L67.3891 3.71464L67.4916 3.85039L67.5014 3.86308L67.5102 3.87675C67.634 4.06463 67.7046 4.24776 67.7514 4.40605L67.8159 4.66093L67.8549 4.82109L67.9204 5.03886L68.0434 5.39628C68.1743 5.74104 68.3324 6.06489 68.5229 6.37089L68.6 6.4871C68.7582 6.70983 68.9613 6.90939 69.2221 7.13456L69.7104 7.54472C69.8005 7.6216 69.8926 7.7029 69.9838 7.78593L70.2514 8.04277L70.2524 8.04374L70.853 8.65898L70.8549 8.65996L71.312 9.1414C71.6934 9.55032 72.0727 9.97975 72.4272 10.4334L72.6371 10.7088L72.642 10.7156L72.6469 10.7234L72.8637 11.0389L72.8705 11.0477L73.0454 11.3182L73.1264 11.2742L73.1362 11.2693L73.436 11.1277L73.603 11.0623C73.7873 10.9963 74.0228 10.9345 74.2748 10.9344H74.2954L74.3149 10.9353L74.4116 10.9432L74.4321 10.9451L74.4526 10.949L74.5952 10.9822C74.82 11.0521 74.9803 11.1843 75.0805 11.2889L75.1723 11.3953L75.2504 11.5066C75.3217 11.6176 75.3729 11.7245 75.4028 11.7879L75.4711 11.9334C75.5488 11.9686 75.6833 12.0113 75.8862 12.0301C76.1638 12.0556 76.4523 12.0279 76.6479 11.9822L76.9145 11.908C77.0029 11.881 77.1079 11.8481 77.2309 11.8133L77.4194 11.7635C77.6209 11.7145 77.8598 11.6728 78.1176 11.6727H78.1332L78.1479 11.6736L78.2348 11.6785L78.2485 11.6795L78.2612 11.6805C78.5637 11.7151 78.8247 11.8531 78.933 11.9109L79.1489 12.033L79.2514 12.0896L79.2621 12.0955L79.4838 12.2107L79.4926 12.2156L79.6196 12.3006C79.8853 12.5157 79.952 12.8499 79.8862 13.1209C79.8225 13.3828 79.6285 13.6334 79.3325 13.7371L79.1987 13.7723L79.0561 13.7996C78.8241 13.8469 78.5562 13.8388 78.3051 13.7273L78.1977 13.6727C78.1322 13.6347 78.0857 13.6065 78.0395 13.5818C78.0353 13.5796 78.0307 13.578 78.0268 13.576C78.0086 13.5783 77.9883 13.5789 77.9672 13.5828L77.7475 13.6365C77.6669 13.6593 77.573 13.6883 77.4526 13.7244L77.4418 13.7283L77.1069 13.8201L77.0981 13.823L77.0893 13.825C76.7452 13.9064 76.3212 13.9491 75.895 13.9285L75.7114 13.9158C75.3002 13.8778 74.7939 13.7679 74.3627 13.4812L74.351 13.4744L74.3403 13.4656L74.2026 13.3631L74.1909 13.3543L74.1801 13.3455C74.0522 13.2381 73.9599 13.1114 73.8979 13.0115L73.852 13.0369L73.8432 13.0437L73.7748 13.0906C73.7467 13.1103 73.7075 13.1366 73.6625 13.1658L73.5112 13.2576C73.4365 13.2985 73.3144 13.3596 73.1616 13.4002L72.9985 13.4324C72.7722 13.4616 72.4601 13.4335 72.1791 13.2254L72.1645 13.2146L72.1508 13.2029L72.0873 13.1492L72.0766 13.1394L72.0649 13.1287C71.8874 12.9562 71.7346 12.7576 71.6088 12.5779L71.4916 12.406C71.4181 12.2951 71.347 12.1827 71.2895 12.0945L71.1137 11.8367L70.7416 11.3602C70.3567 10.8896 69.9347 10.4351 69.4936 9.97831L68.8979 9.36894C68.7628 9.2313 68.629 9.11267 68.4819 8.98808L67.9829 8.56718C67.6785 8.30443 67.3391 7.9864 67.0473 7.57304L67.0395 7.5623L66.9321 7.40019L66.9243 7.38847C66.5706 6.82384 66.3075 6.22947 66.1118 5.60917L66.1088 5.60136L66.0336 5.34941L66.0317 5.34257L65.9672 5.08281C65.9605 5.05322 65.9542 5.02977 65.9496 5.01054C65.8743 5.00985 65.7846 5.01567 65.6655 5.02519H65.6577L65.2729 5.05058L65.2612 5.05156H65.2504C65.228 5.05206 65.1862 5.05742 65.1079 5.09453L65.0161 5.14433C64.9453 5.1856 64.8687 5.23674 64.767 5.30742L64.7641 5.31035L64.4428 5.5291L64.433 5.53593C63.9571 5.84544 63.3759 6.16987 62.8022 6.39824L62.7924 6.40117L62.5649 6.4871L62.5532 6.49101C62.4435 6.52924 62.2802 6.58599 62.0952 6.62968L61.9038 6.66777C61.6716 6.70492 61.3568 6.721 61.0258 6.61406L61.0151 6.61113L61.0043 6.60722L60.9067 6.57011L60.895 6.56621L60.8832 6.56132C60.6147 6.4453 60.3866 6.25737 60.2153 6.08964L60.0639 5.93144C59.9652 5.82338 59.8738 5.71216 59.7944 5.61015L59.7866 5.60136L59.5942 5.3416L59.5873 5.33281C59.5387 5.26405 59.493 5.18757 59.4526 5.11699L59.351 4.93242C59.3099 4.85632 59.2735 4.79601 59.2426 4.74394C59.233 4.74537 59.223 4.74738 59.2133 4.74882L58.8891 4.7996C58.7785 4.81761 58.6599 4.83786 58.5375 4.85624L58.1606 4.90605C57.7095 4.9558 57.1926 4.97163 56.645 4.84355L56.6371 4.8416L56.6303 4.83964L56.4272 4.78496L56.4174 4.783L56.4086 4.78007C55.8914 4.62053 55.0102 4.24228 54.767 3.24492L54.7641 3.23222L54.7621 3.2205L54.7329 3.07011L54.7289 3.04667C54.7164 2.95874 54.7089 2.86857 54.7036 2.78691L54.6928 2.57597C54.6894 2.50526 54.6818 2.45183 54.6782 2.40898C54.5023 2.37524 54.2863 2.4002 53.9516 2.50078L53.7582 2.56132L53.7592 2.5623C53.3404 2.70235 53.0433 2.8786 52.6879 3.17851L52.5219 3.32499L52.5209 3.32402C51.8009 3.96887 50.8906 4.19954 49.9614 3.95097L49.9536 3.94902L49.9457 3.94609L49.7924 3.90019L49.7856 3.89824L49.7788 3.89531C49.707 3.87141 49.6105 3.86232 49.3569 3.95292L49.0356 4.08378L49.0346 4.08281C48.7733 4.19411 48.5093 4.25923 48.2748 4.30156L48.0483 4.33867C47.9001 4.3601 47.764 4.37498 47.6508 4.38945L47.6518 4.39042L47.312 4.44218C47.1096 4.48163 46.9042 4.5283 46.6938 4.5789L46.6928 4.57792L46.0405 4.74003C45.6951 4.82559 45.4407 4.92441 45.1791 5.08281L45.0454 5.16777C44.9839 5.20924 44.8955 5.27193 44.7954 5.33964L44.4584 5.55351C44.2482 5.67488 43.9632 5.8142 43.6284 5.87285L43.6186 5.8748L43.6088 5.87578L43.4985 5.89042L43.4897 5.89238H43.4799C42.9915 5.93916 42.5361 5.86561 42.1586 5.7791L41.809 5.69218C41.3991 5.58662 41.1249 5.51628 40.8618 5.50566H40.7407C40.7317 5.50742 40.7069 5.51316 40.6645 5.53203C40.6339 5.54569 40.5974 5.56477 40.5551 5.58964L40.4086 5.68535C40.3021 5.75999 40.1921 5.84654 40.0659 5.94804L40.06 5.95195L39.6811 6.24882L39.6743 6.25468L39.6664 6.25956L39.434 6.41191C39.4065 6.42954 39.3825 6.44703 39.3608 6.46171C39.3594 6.49002 39.3594 6.51815 39.3579 6.5457L39.3383 6.83085C39.3242 7.02029 39.3158 7.16845 39.3188 7.30742L39.3227 7.37382C39.3342 7.46898 39.3679 7.56814 39.4223 7.66093L39.4848 7.75175L39.4926 7.76249L39.5004 7.77421L39.5854 7.89628L39.5971 7.91386C39.639 7.97989 39.6887 8.06487 39.7319 8.15996L39.7993 8.33574C39.8221 8.40745 39.8434 8.49106 39.8539 8.58281L39.8608 8.72246C39.8598 8.8809 39.8263 9.09142 39.6948 9.29863L39.686 9.3123L39.6762 9.32499L39.6323 9.38652L39.6108 9.41386C39.5259 9.51456 39.4327 9.6007 39.3491 9.6707L39.142 9.83085C39.085 9.87288 39.0499 9.89888 39.0239 9.91972L38.9702 9.9705C38.7814 10.187 38.649 10.3603 38.5805 10.5027C38.5853 10.4906 38.5835 10.4898 38.5805 10.5066L38.5707 10.617C38.569 10.6684 38.5722 10.7171 38.5737 10.7703C38.6107 10.7867 38.6525 10.8044 38.686 10.8201L38.8159 10.8758C38.8632 10.8941 38.9171 10.9146 38.9877 10.9412L39.2211 11.033C39.3077 11.0698 39.4016 11.1129 39.4936 11.1629L39.6401 11.2508C39.9968 11.4818 40.4231 11.9065 40.4233 12.6228L40.4194 12.7312C40.4032 12.9484 40.3373 13.1679 40.2065 13.366L40.1362 13.4627C39.9905 13.644 39.8155 13.7634 39.6508 13.8406L39.4907 13.9051C39.2063 14.0016 38.904 14.0148 38.6508 14.0027L38.4164 13.9842C38.1132 13.9515 37.8005 13.8843 37.5532 13.824L37.5444 13.8221L37.0649 13.6951L36.9965 13.7176L36.9955 13.7166C36.5785 13.8511 36.1875 13.7863 35.9448 13.7273L35.933 13.7244L35.7475 13.6746L35.7397 13.6727C35.5408 13.6158 35.3608 13.5542 35.2504 13.5203C35.1321 13.484 35.0539 13.4657 34.978 13.4578L34.8784 13.4529H34.0278C33.8804 13.453 33.4938 13.4789 33.102 13.3582L33.0893 13.3543L33.0776 13.3494L32.9487 13.3025L32.937 13.2986L32.9252 13.2937C32.8482 13.2612 32.7795 13.2234 32.7221 13.1873L32.5825 13.0887C32.571 13.0797 32.5576 13.0683 32.5444 13.0574C32.5171 13.0583 32.4885 13.0577 32.4594 13.0594L32.1586 13.0818C31.9885 13.0964 31.7739 13.1151 31.5473 13.115H31.5327L31.3276 13.1092L31.3188 13.1082H31.311C30.9787 13.0872 30.7408 13.1461 30.5063 13.3094L30.3725 13.4139L30.3715 13.4129C30.0881 13.6472 29.6997 13.8485 29.2397 13.8152L29.0336 13.785C28.7607 13.7247 28.5383 13.5916 28.3608 13.4432L28.2778 13.4812C28.2352 13.5015 28.1752 13.5306 28.1118 13.5584L28.0883 13.5682L27.9223 13.6307L27.9028 13.6375L27.8832 13.6434C27.7908 13.67 27.6251 13.7223 27.436 13.7547L27.2407 13.7791C27.0046 13.7955 26.769 13.7665 26.5288 13.6844L26.5151 13.6795L26.5004 13.6736L26.3198 13.5994L26.3071 13.5935L26.2934 13.5877C25.9868 13.4409 25.7803 13.2509 25.6284 13.0799C25.5872 13.1005 25.5429 13.1241 25.4936 13.1424L25.4809 13.1473L25.4682 13.1512L25.3618 13.1844L25.3461 13.1883C24.9347 13.2868 24.6002 13.1625 24.3852 13.0359L24.3002 12.9822C24.2074 12.9189 24.1296 12.8519 24.0844 12.8123L23.9858 12.7283C23.9213 12.6772 23.8567 12.6215 23.7993 12.5701L23.6411 12.4256C23.6228 12.409 23.6054 12.3941 23.5903 12.3807C23.0758 12.6405 22.5442 12.608 22.1616 12.5389L21.9858 12.5027C21.8751 12.4779 21.7601 12.4479 21.6538 12.4187L21.3715 12.3396C21.3252 12.3269 21.2828 12.3168 21.2455 12.3074L21.0317 12.5809C20.9742 12.6538 20.8846 12.7667 20.7748 12.8738L20.6586 12.9773C20.6343 12.997 20.6107 13.0155 20.5864 13.032L20.5082 13.0799C20.2386 13.2345 19.9517 13.2023 19.7534 13.1394C19.5493 13.0746 19.3624 12.9569 19.2202 12.8279C19.091 12.7106 18.9309 12.522 18.8813 12.284C18.8537 12.151 18.8566 11.9738 18.9584 11.8055C19.0592 11.6391 19.214 11.5513 19.3491 11.5086L19.3823 11.4978L19.3852 11.4969C19.3821 11.4981 19.3772 11.5003 19.3715 11.5027C19.3675 11.5045 19.3602 11.5076 19.352 11.5115H19.35C19.3455 11.5138 19.3367 11.5203 19.3246 11.5271C19.3337 11.5221 19.3423 11.5173 19.35 11.5135C19.3575 11.5098 19.3646 11.5063 19.3705 11.5037C19.3759 11.5014 19.3815 11.4982 19.3871 11.4959C19.39 11.4949 19.393 11.4949 19.393 11.4949H19.3891C19.3918 11.4939 19.3951 11.493 19.3979 11.492C19.4071 11.4886 19.42 11.4843 19.434 11.4803C19.441 11.4783 19.4502 11.4757 19.4604 11.4734C19.4681 11.4717 19.4796 11.4696 19.4926 11.4676C19.5055 11.4519 19.5221 11.4333 19.5405 11.41L19.8071 11.073L19.9965 10.8641C20.0711 10.7896 20.1574 10.713 20.2534 10.6443L20.3979 10.5525C20.5595 10.4606 20.7734 10.3768 21.0297 10.3689H21.059L21.1498 10.3719H21.1752L21.1996 10.3758L21.3637 10.3963L21.3715 10.3982C21.5543 10.4277 21.7301 10.4724 21.8754 10.5125L22.4008 10.6541L22.5922 10.6883C22.6411 10.6938 22.6775 10.6946 22.7036 10.6932C22.7197 10.6922 22.7304 10.6895 22.7358 10.6883L22.7465 10.6814L22.7631 10.6727L22.9174 10.5818L22.933 10.573L22.9487 10.5652C23.176 10.4527 23.4292 10.3924 23.6967 10.408L23.8207 10.4207C24.1011 10.4614 24.3267 10.5779 24.4858 10.6805L24.6147 10.7693C24.7379 10.861 24.8441 10.9565 24.9213 11.0271L25.0815 11.1697C25.0912 11.1641 25.1008 11.1576 25.1108 11.1521L25.2231 11.0965C25.3493 11.0412 25.5175 10.9912 25.7172 10.991L25.8471 10.9959C25.9816 11.0076 26.1323 11.0408 26.2875 11.1131L26.4272 11.1893C26.5562 11.2703 26.6544 11.363 26.726 11.4402L26.9282 11.6766L27.0444 11.8182L27.0903 11.865C27.0945 11.8685 27.0996 11.871 27.1069 11.8748L27.1274 11.8836C27.1501 11.8788 27.2001 11.8673 27.3373 11.8279C27.3404 11.8267 27.3443 11.8257 27.3481 11.824L27.4614 11.7713L27.6342 11.6902C27.7011 11.6598 27.7758 11.6278 27.851 11.5984L27.9711 11.5545C28.1049 11.5091 28.2777 11.463 28.4643 11.4529L28.6577 11.4559C28.8361 11.4716 29.0523 11.527 29.2534 11.6707L29.3715 11.7674L29.3862 11.781L29.4047 11.7684L29.4145 11.7605L29.4243 11.7537C30.0453 11.3219 30.7123 11.1755 31.4125 11.2166L31.5551 11.2195C31.6816 11.2192 31.8197 11.2093 31.9975 11.1941L32.3793 11.1658C32.5206 11.1583 32.6734 11.1553 32.8286 11.1629H32.8442L32.8598 11.1648L32.9545 11.1756L32.9721 11.1775L32.9907 11.1814C33.3412 11.2468 33.5803 11.4536 33.6498 11.5115L33.6987 11.5525C33.7142 11.5541 33.7344 11.5579 33.7651 11.5584H34.9311L34.9418 11.5594L35.1186 11.5691H35.1293L35.1401 11.5711C35.5969 11.6157 36.0523 11.7891 36.2514 11.8475L36.4116 11.8894C36.4316 11.894 36.4475 11.8972 36.4594 11.8992L36.5844 11.8611L36.6 11.8572C36.6765 11.8363 36.7688 11.8153 36.8696 11.8035L36.8959 11.8016C36.8108 11.6646 36.742 11.5026 36.7084 11.3123L36.7055 11.2947L36.7036 11.2762L36.6899 11.1414L36.6879 11.1238L36.687 11.1072C36.6832 10.9984 36.6689 10.7624 36.6762 10.5516L36.687 10.3728C36.7054 10.1797 36.7496 9.94705 36.8559 9.71757L36.933 9.56425C37.1236 9.21246 37.3782 8.91191 37.5551 8.70976L37.5629 8.70097L37.5707 8.69316L37.6694 8.58964L37.687 8.57206C37.7034 8.55656 37.7213 8.54271 37.7377 8.52812C37.5852 8.244 37.4767 7.92529 37.4379 7.58476L37.437 7.57304L37.436 7.5623L37.4243 7.38554L37.4233 7.3748V7.36406C37.4171 7.11736 37.4334 6.88132 37.4477 6.69023L37.4672 6.41484C37.4722 6.33193 37.475 6.25537 37.475 6.17949L37.4819 6.05546C37.5102 5.77393 37.6296 5.5525 37.7368 5.40507L37.8325 5.28691C37.9294 5.17713 38.0301 5.09076 38.1098 5.02812L38.2719 4.90898C38.3233 4.87354 38.3715 4.84281 38.4116 4.81718L38.5502 4.72734L38.8823 4.46757C39.0066 4.36765 39.1576 4.24655 39.3188 4.13359L39.5786 3.96562C39.8674 3.794 40.2432 3.62787 40.6743 3.6121H40.9096C41.4375 3.62993 41.9282 3.76716 42.2817 3.8582L42.5922 3.93437C42.8718 3.99774 43.0839 4.02464 43.2885 4.00664L43.3198 4.00078C43.3526 3.99128 43.4139 3.96846 43.5102 3.91289L43.7299 3.77226C43.8053 3.72075 43.8886 3.66172 43.9975 3.58867L44.0082 3.58183L44.184 3.4705L44.1918 3.46562L44.3627 3.36699C44.7591 3.14832 45.1504 3.00869 45.5844 2.90117L46.2465 2.73808L46.2495 2.7371L46.5981 2.65605C46.7154 2.63001 46.8341 2.60489 46.9526 2.58183L46.9614 2.57988L46.9702 2.5789L47.3823 2.51445L47.395 2.51249L47.7758 2.46269L48.0825 2.40703C48.1669 2.38704 48.2364 2.36506 48.2954 2.33964L48.3041 2.33574L48.6704 2.18632L48.6791 2.18242L48.6879 2.17949C49.0213 2.05763 49.4497 1.94484 49.9301 1.99882L50.1391 2.03203L50.1538 2.03593L50.1674 2.03984L50.5248 2.13749C50.7844 2.18772 51.0192 2.1268 51.2582 1.91191L51.2631 1.908L51.4614 1.73417L51.4692 1.72734L51.6577 1.57402C52.0993 1.22824 52.5584 0.965785 53.1577 0.765424L53.1635 0.763471L53.3891 0.691205L53.3969 0.689252L53.6215 0.624799ZM73.7758 13.075L73.7797 13.074L73.7817 13.0721L73.7758 13.075ZM19.2602 12.3543C19.2645 12.3577 19.2705 12.36 19.2748 12.3631C19.2654 12.3561 19.2558 12.3475 19.2455 12.3387C19.2512 12.3441 19.2557 12.3503 19.2602 12.3543ZM19.1635 11.6707C19.1554 11.6821 19.1449 11.6975 19.1342 11.7166C19.1471 11.6938 19.1611 11.6749 19.1733 11.659C19.1704 11.6628 19.1665 11.6666 19.1635 11.6707ZM19.8549 11.5535C19.8502 11.5501 19.8457 11.5456 19.8413 11.5428C19.8267 11.5334 19.8117 11.5262 19.7983 11.5193C19.8154 11.5289 19.8368 11.5417 19.8549 11.5535ZM19.6723 11.4744C19.663 11.4724 19.6547 11.4696 19.6479 11.4685C19.6328 11.4662 19.619 11.4645 19.6088 11.4637C19.6254 11.4649 19.6471 11.4691 19.6723 11.4744Z" fill="url(#paint1_linear_214_5971)"/>
<path d="M4.2356 25.8537L1.9917 19.3293V19.1829H4.29658L5.86975 24.7927H5.41853L7.01609 19.1829H9.25999V19.3293L6.93072 25.8537H4.2356Z" fill="#009CBC"/>
<path d="M11.106 18.2195C10.7727 18.2195 10.5003 18.126 10.289 17.939C10.0776 17.7439 9.97188 17.4675 9.97188 17.1098C9.97188 16.752 10.0776 16.4797 10.289 16.2927C10.5003 16.0976 10.7727 16 11.106 16C11.4475 16 11.7239 16.0976 11.9353 16.2927C12.1467 16.4797 12.2524 16.752 12.2524 17.1098C12.2524 17.4675 12.1467 17.7439 11.9353 17.939C11.7239 18.126 11.4475 18.2195 11.106 18.2195ZM10.0329 25.8537V21.2195C10.0329 21.0569 10.0288 20.8496 10.0207 20.5976C10.0207 20.3455 10.0085 20.1016 9.98408 19.8659C9.96782 19.622 9.94343 19.4268 9.91091 19.2805L9.94749 19.1829H12.1792V25.8537H10.0329Z" fill="#009CBC"/>
<path d="M13.5097 23.8902H13.6073C13.8999 24.0122 14.2536 24.122 14.6682 24.2195C15.0829 24.3171 15.4975 24.3659 15.9121 24.3659C16.0747 24.3659 16.2252 24.3618 16.3634 24.3537C16.5016 24.3374 16.6195 24.313 16.717 24.2805C16.8227 24.248 16.904 24.1951 16.9609 24.122C17.0178 24.0488 17.0463 23.9512 17.0463 23.8293C17.0463 23.6504 16.9691 23.5285 16.8146 23.4634C16.6682 23.3984 16.4081 23.3333 16.0341 23.2683L15.4853 23.1707C14.8674 23.0569 14.3756 22.8577 14.0097 22.5732C13.652 22.2886 13.4731 21.8537 13.4731 21.2683C13.4731 20.8455 13.5869 20.4675 13.8146 20.1341C14.0422 19.7927 14.3999 19.5285 14.8878 19.3415C15.3756 19.1463 16.0056 19.0488 16.778 19.0488C17.1439 19.0488 17.4772 19.0691 17.778 19.1098C18.0869 19.1504 18.3959 19.2154 18.7048 19.3049V21H18.6073C18.2739 20.8699 17.9487 20.7805 17.6317 20.7317C17.3146 20.6748 17.0138 20.6463 16.7292 20.6463C16.3552 20.6463 16.0626 20.687 15.8512 20.7683C15.6398 20.8415 15.5341 20.9797 15.5341 21.1829C15.5341 21.3374 15.6154 21.4472 15.778 21.5122C15.9487 21.5772 16.1926 21.6382 16.5097 21.6951L17.0707 21.7927C17.4528 21.8577 17.7983 21.9634 18.1073 22.1098C18.4243 22.2561 18.6764 22.4634 18.8634 22.7317C19.0504 22.9919 19.1439 23.3293 19.1439 23.7439C19.1439 24.4919 18.8634 25.0488 18.3024 25.4146C17.7495 25.7724 16.9121 25.9512 15.7902 25.9512C15.4081 25.9512 15.0138 25.9187 14.6073 25.8537C14.2008 25.7886 13.8349 25.7073 13.5097 25.6098V23.8902Z" fill="#009CBC"/>
<path d="M21.3128 18.2195C20.9794 18.2195 20.7071 18.126 20.4957 17.939C20.2843 17.7439 20.1786 17.4675 20.1786 17.1098C20.1786 16.752 20.2843 16.4797 20.4957 16.2927C20.7071 16.0976 20.9794 16 21.3128 16C21.6542 16 21.9307 16.0976 22.142 16.2927C22.3534 16.4797 22.4591 16.752 22.4591 17.1098C22.4591 17.4675 22.3534 17.7439 22.142 17.939C21.9307 18.126 21.6542 18.2195 21.3128 18.2195ZM20.2396 25.8537V21.2195C20.2396 21.0569 20.2355 20.8496 20.2274 20.5976C20.2274 20.3455 20.2152 20.1016 20.1908 19.8659C20.1746 19.622 20.1502 19.4268 20.1177 19.2805L20.1542 19.1829H22.3859V25.8537H20.2396Z" fill="#009CBC"/>
<path d="M27.2774 25.9512C26.6839 25.9512 26.1636 25.874 25.7164 25.7195C25.2774 25.5569 24.9319 25.2886 24.6799 24.9146C24.436 24.5325 24.314 24.0203 24.314 23.378V17.5122H26.4604V23.2195C26.4604 23.5935 26.5498 23.8618 26.7286 24.0244C26.9156 24.1789 27.2043 24.2561 27.5945 24.2561C27.7408 24.2561 27.8831 24.2398 28.0213 24.2073C28.1595 24.1748 28.2815 24.1382 28.3872 24.0976H28.5213V25.7805C28.3425 25.8374 28.1555 25.878 27.9604 25.9024C27.7652 25.935 27.5376 25.9512 27.2774 25.9512ZM23.2286 20.8415V19.1829H28.2165V20.8415H23.2286Z" fill="#009CBC"/>
<path d="M33.7477 25.8537H32.6257V18.6829C32.6257 18.5203 32.6217 18.3089 32.6136 18.0488C32.6136 17.7886 32.6054 17.5325 32.5892 17.2805C32.581 17.0285 32.5607 16.8293 32.5282 16.6829L32.5526 16.5854H33.7477V25.8537ZM33.6014 22.3902L36.6257 19.2195H37.894V19.3659C37.8127 19.4309 37.7192 19.5122 37.6136 19.6098C37.516 19.6992 37.4103 19.8008 37.2965 19.9146C37.1908 20.0203 37.081 20.1301 36.9672 20.2439L34.6014 22.6707L34.6136 22L36.9672 24.6341C37.1298 24.813 37.3046 25.0122 37.4916 25.2317C37.6867 25.4512 37.8371 25.6098 37.9428 25.7073V25.8537H36.6257L33.6014 22.3902Z" fill="#009CBC"/>
<path d="M41.2848 26C40.3335 26 39.6181 25.8293 39.1384 25.4878C38.6669 25.1382 38.4311 24.6098 38.4311 23.9024C38.4311 23.4309 38.5449 23.0407 38.7726 22.7317C39.0083 22.4228 39.3376 22.1911 39.7604 22.0366C40.1913 21.8821 40.6994 21.8049 41.2848 21.8049C41.74 21.8049 42.1181 21.8455 42.4189 21.9268C42.7279 22 42.9921 22.0732 43.2116 22.1463V23.0244C42.9921 22.9512 42.7197 22.8862 42.3945 22.8293C42.0693 22.7642 41.7644 22.7317 41.4799 22.7317C40.8214 22.7317 40.3295 22.8171 40.0043 22.9878C39.6872 23.1585 39.5287 23.4634 39.5287 23.9024C39.5287 24.3171 39.6831 24.6179 39.9921 24.8049C40.301 24.9837 40.7482 25.0732 41.3335 25.0732C41.6587 25.0732 41.9718 25.0488 42.2726 25C42.5734 24.9431 42.8539 24.8699 43.114 24.7805L42.8945 25.1098C42.8783 25.0447 42.862 24.9715 42.8457 24.8902C42.8376 24.8089 42.8295 24.7236 42.8214 24.6341C42.8132 24.5447 42.8051 24.4512 42.797 24.3537C42.797 24.2561 42.797 24.1545 42.797 24.0488V21.8537C42.797 21.3333 42.7238 20.9472 42.5774 20.6951C42.4392 20.435 42.2279 20.2642 41.9433 20.1829C41.6669 20.0935 41.3173 20.0488 40.8945 20.0488C40.5774 20.0488 40.2522 20.0894 39.9189 20.1707C39.5937 20.252 39.3335 20.3415 39.1384 20.439H39.0409V19.439C39.3335 19.3171 39.6587 19.2276 40.0165 19.1707C40.3823 19.1057 40.7238 19.0732 41.0409 19.0732C41.4474 19.0732 41.8214 19.1098 42.1628 19.1829C42.5124 19.2561 42.8173 19.3902 43.0774 19.5854C43.3457 19.7724 43.5531 20.0447 43.6994 20.4024C43.8457 20.7602 43.9189 21.2276 43.9189 21.8049V23.4146C43.9189 23.5772 43.9189 23.7886 43.9189 24.0488C43.927 24.3089 43.9352 24.565 43.9433 24.8171C43.9596 25.0691 43.9839 25.2683 44.0165 25.4146L43.9921 25.5122C43.7238 25.6098 43.427 25.6951 43.1018 25.7683C42.7766 25.8415 42.4514 25.8984 42.1262 25.939C41.8092 25.9797 41.5287 26 41.2848 26Z" fill="#009CBC"/>
<path d="M45.1487 25.8537L45.0512 25.7317C45.0105 25.5447 44.9902 25.3902 44.9902 25.2683C44.9902 25.0081 45.043 24.7724 45.1487 24.561C45.2625 24.3415 45.3926 24.1504 45.539 23.9878C45.6853 23.8171 45.8113 23.6748 45.917 23.561L48.356 20.9756C48.4536 20.8699 48.5552 20.7561 48.6609 20.6341C48.7747 20.5041 48.8682 20.3821 48.9414 20.2683C49.0146 20.1463 49.043 20.0488 49.0268 19.9756L49.4536 20.1707H45.1365V19.2195H50.0024L50.0999 19.3415C50.1406 19.5285 50.1609 19.6829 50.1609 19.8049C50.1609 20.065 50.104 20.3049 49.9902 20.5244C49.8845 20.7358 49.7585 20.9268 49.6121 21.0976C49.4658 21.2602 49.3398 21.3984 49.2341 21.5122L46.7951 24.0976C46.7056 24.2033 46.604 24.3211 46.4902 24.4512C46.3845 24.5732 46.291 24.6911 46.2097 24.8049C46.1365 24.9187 46.0999 25.0163 46.0999 25.0976L45.6853 24.9024H50.356V25.8537H45.1487Z" fill="#009CBC"/>
<path d="M53.9601 26C53.0089 26 52.2934 25.8293 51.8137 25.4878C51.3422 25.1382 51.1064 24.6098 51.1064 23.9024C51.1064 23.4309 51.2202 23.0407 51.4479 22.7317C51.6836 22.4228 52.0129 22.1911 52.4357 22.0366C52.8666 21.8821 53.3747 21.8049 53.9601 21.8049C54.4154 21.8049 54.7934 21.8455 55.0942 21.9268C55.4032 22 55.6674 22.0732 55.8869 22.1463V23.0244C55.6674 22.9512 55.395 22.8862 55.0698 22.8293C54.7446 22.7642 54.4397 22.7317 54.1552 22.7317C53.4967 22.7317 53.0048 22.8171 52.6796 22.9878C52.3625 23.1585 52.204 23.4634 52.204 23.9024C52.204 24.3171 52.3584 24.6179 52.6674 24.8049C52.9763 24.9837 53.4235 25.0732 54.0089 25.0732C54.3341 25.0732 54.6471 25.0488 54.9479 25C55.2487 24.9431 55.5292 24.8699 55.7893 24.7805L55.5698 25.1098C55.5536 25.0447 55.5373 24.9715 55.521 24.8902C55.5129 24.8089 55.5048 24.7236 55.4967 24.6341C55.4885 24.5447 55.4804 24.4512 55.4723 24.3537C55.4723 24.2561 55.4723 24.1545 55.4723 24.0488V21.8537C55.4723 21.3333 55.3991 20.9472 55.2528 20.6951C55.1145 20.435 54.9032 20.2642 54.6186 20.1829C54.3422 20.0935 53.9926 20.0488 53.5698 20.0488C53.2528 20.0488 52.9275 20.0894 52.5942 20.1707C52.269 20.252 52.0089 20.3415 51.8137 20.439H51.7162V19.439C52.0089 19.3171 52.3341 19.2276 52.6918 19.1707C53.0576 19.1057 53.3991 19.0732 53.7162 19.0732C54.1227 19.0732 54.4967 19.1098 54.8381 19.1829C55.1877 19.2561 55.4926 19.3902 55.7528 19.5854C56.021 19.7724 56.2284 20.0447 56.3747 20.4024C56.521 20.7602 56.5942 21.2276 56.5942 21.8049V23.4146C56.5942 23.5772 56.5942 23.7886 56.5942 24.0488C56.6023 24.3089 56.6105 24.565 56.6186 24.8171C56.6349 25.0691 56.6593 25.2683 56.6918 25.4146L56.6674 25.5122C56.3991 25.6098 56.1023 25.6951 55.7771 25.7683C55.4519 25.8415 55.1267 25.8984 54.8015 25.939C54.4845 25.9797 54.204 26 53.9601 26Z" fill="#009CBC"/>
<path d="M59.1045 25.8537H57.9826V18.6829C57.9826 18.5203 57.9785 18.3089 57.9704 18.0488C57.9704 17.7886 57.9622 17.5325 57.946 17.2805C57.9378 17.0285 57.9175 16.8293 57.885 16.6829L57.9094 16.5854H59.1045V25.8537ZM58.9582 22.3902L61.9825 19.2195H63.2508V19.3659C63.1695 19.4309 63.076 19.5122 62.9704 19.6098C62.8728 19.6992 62.7671 19.8008 62.6533 19.9146C62.5476 20.0203 62.4378 20.1301 62.324 20.2439L59.9582 22.6707L59.9704 22L62.324 24.6341C62.4866 24.813 62.6614 25.0122 62.8484 25.2317C63.0435 25.4512 63.1939 25.6098 63.2996 25.7073V25.8537H61.9825L58.9582 22.3902Z" fill="#009CBC"/>
<path d="M64.3245 25.8537V18.6829C64.3245 18.5203 64.3204 18.3089 64.3123 18.0488C64.3123 17.7886 64.3042 17.5325 64.2879 17.2805C64.2798 17.0285 64.2595 16.8293 64.2269 16.6829L64.2513 16.5854H65.4464V19.8902L65.2147 19.5366C65.4749 19.4146 65.7595 19.3089 66.0684 19.2195C66.3855 19.122 66.7473 19.0732 67.1538 19.0732C67.4952 19.0732 67.8245 19.1179 68.1416 19.2073C68.4668 19.2886 68.7554 19.439 69.0074 19.6585C69.2595 19.8699 69.4586 20.1626 69.605 20.5366C69.7595 20.9024 69.8367 21.374 69.8367 21.9512V25.8537H68.7147V22.0976C68.7147 21.561 68.6375 21.1504 68.483 20.8659C68.3367 20.5732 68.1253 20.374 67.8489 20.2683C67.5806 20.1545 67.2676 20.0976 66.9099 20.0976C66.6985 20.0976 66.4871 20.1179 66.2757 20.1585C66.0725 20.1992 65.8773 20.252 65.6903 20.3171C65.5115 20.374 65.3489 20.435 65.2025 20.5L65.4464 19.939V25.8537H64.3245Z" fill="#009CBC"/>
<path d="M71.1007 24.5366H71.1982C71.4909 24.6667 71.8202 24.7724 72.1861 24.8537C72.56 24.935 72.93 24.9756 73.2958 24.9756C73.4096 24.9756 73.56 24.9715 73.747 24.9634C73.9422 24.9472 74.1373 24.9106 74.3324 24.8537C74.5356 24.7967 74.7064 24.6992 74.8446 24.561C74.9828 24.4146 75.0519 24.2114 75.0519 23.9512C75.0519 23.6585 74.934 23.4512 74.6982 23.3293C74.4625 23.2073 74.1373 23.1138 73.7226 23.0488L73.1373 22.9512C72.4462 22.8374 71.934 22.6423 71.6007 22.3659C71.2674 22.0813 71.1007 21.6829 71.1007 21.1707C71.1007 20.813 71.1942 20.4797 71.3812 20.1707C71.5763 19.8537 71.8852 19.6016 72.308 19.4146C72.7389 19.2195 73.3121 19.122 74.0275 19.122C74.3446 19.122 74.6495 19.1504 74.9422 19.2073C75.243 19.2561 75.4909 19.3171 75.6861 19.3902V20.3902H75.5885C75.3202 20.2927 75.0641 20.2195 74.8202 20.1707C74.5763 20.122 74.2958 20.0976 73.9787 20.0976C73.4178 20.0976 72.9747 20.1789 72.6495 20.3415C72.3324 20.4959 72.1739 20.7602 72.1739 21.1341C72.1739 21.4187 72.2877 21.622 72.5153 21.7439C72.7511 21.8659 73.0763 21.9593 73.4909 22.0244L74.0763 22.122C74.4503 22.1789 74.7917 22.2805 75.1007 22.4268C75.4096 22.5732 75.6576 22.7724 75.8446 23.0244C76.0316 23.2683 76.1251 23.5772 76.1251 23.9512C76.1251 24.6098 75.8893 25.1098 75.4178 25.4512C74.9462 25.7846 74.2226 25.9512 73.247 25.9512C72.8324 25.9512 72.4422 25.9187 72.0763 25.8537C71.7186 25.7886 71.3934 25.7073 71.1007 25.6098V24.5366Z" fill="#009CBC"/>
<path d="M79.9833 25.9512C79.4142 25.9512 78.9589 25.8618 78.6175 25.6829C78.276 25.4959 78.028 25.2398 77.8736 24.9146C77.7191 24.5813 77.6418 24.1951 77.6418 23.7561V17.4146H78.7638V23.6585C78.7638 24.122 78.8654 24.4593 79.0687 24.6707C79.2719 24.874 79.5931 24.9756 80.0321 24.9756C80.2028 24.9756 80.3695 24.9593 80.5321 24.9268C80.6947 24.8862 80.837 24.8374 80.9589 24.7805H81.0565V25.7317C80.9345 25.7886 80.7801 25.8374 80.5931 25.878C80.4061 25.9268 80.2028 25.9512 79.9833 25.9512ZM76.6175 20.1951V19.2195H80.6662V20.1951H76.6175Z" fill="#009CBC"/>
<path d="M84.5955 26C83.6443 26 82.9289 25.8293 82.4492 25.4878C81.9777 25.1382 81.7419 24.6098 81.7419 23.9024C81.7419 23.4309 81.8557 23.0407 82.0834 22.7317C82.3191 22.4228 82.6484 22.1911 83.0712 22.0366C83.502 21.8821 84.0102 21.8049 84.5955 21.8049C85.0508 21.8049 85.4289 21.8455 85.7297 21.9268C86.0386 22 86.3029 22.0732 86.5224 22.1463V23.0244C86.3029 22.9512 86.0305 22.8862 85.7053 22.8293C85.3801 22.7642 85.0752 22.7317 84.7907 22.7317C84.1321 22.7317 83.6403 22.8171 83.3151 22.9878C82.998 23.1585 82.8394 23.4634 82.8394 23.9024C82.8394 24.3171 82.9939 24.6179 83.3029 24.8049C83.6118 24.9837 84.059 25.0732 84.6443 25.0732C84.9695 25.0732 85.2825 25.0488 85.5834 25C85.8842 24.9431 86.1646 24.8699 86.4248 24.7805L86.2053 25.1098C86.189 25.0447 86.1728 24.9715 86.1565 24.8902C86.1484 24.8089 86.1403 24.7236 86.1321 24.6341C86.124 24.5447 86.1159 24.4512 86.1077 24.3537C86.1077 24.2561 86.1077 24.1545 86.1077 24.0488V21.8537C86.1077 21.3333 86.0346 20.9472 85.8882 20.6951C85.75 20.435 85.5386 20.2642 85.2541 20.1829C84.9777 20.0935 84.6281 20.0488 84.2053 20.0488C83.8882 20.0488 83.563 20.0894 83.2297 20.1707C82.9045 20.252 82.6443 20.3415 82.4492 20.439H82.3516V19.439C82.6443 19.3171 82.9695 19.2276 83.3272 19.1707C83.6931 19.1057 84.0346 19.0732 84.3516 19.0732C84.7581 19.0732 85.1321 19.1098 85.4736 19.1829C85.8232 19.2561 86.1281 19.3902 86.3882 19.5854C86.6565 19.7724 86.8638 20.0447 87.0102 20.4024C87.1565 20.7602 87.2297 21.2276 87.2297 21.8049V23.4146C87.2297 23.5772 87.2297 23.7886 87.2297 24.0488C87.2378 24.3089 87.2459 24.565 87.2541 24.8171C87.2703 25.0691 87.2947 25.2683 87.3272 25.4146L87.3029 25.5122C87.0346 25.6098 86.7378 25.6951 86.4126 25.7683C86.0874 25.8415 85.7622 25.8984 85.437 25.939C85.1199 25.9797 84.8394 26 84.5955 26Z" fill="#009CBC"/>
<path d="M88.4961 25.8537V21.6585C88.4961 21.4959 88.492 21.2846 88.4839 21.0244C88.4839 20.7642 88.4758 20.5081 88.4595 20.2561C88.4514 20.0041 88.431 19.8049 88.3985 19.6585L88.4229 19.561C88.6343 19.4797 88.9026 19.4024 89.2278 19.3293C89.553 19.2561 89.8823 19.1951 90.2156 19.1463C90.5489 19.0976 90.8375 19.0732 91.0814 19.0732C91.4879 19.0732 91.866 19.1179 92.2156 19.2073C92.5652 19.2886 92.8741 19.439 93.1424 19.6585C93.4188 19.8699 93.6302 20.1626 93.7766 20.5366C93.931 20.9024 94.0083 21.374 94.0083 21.9512V25.8537H92.8863V22.0488C92.8863 21.5122 92.8091 21.1016 92.6546 20.8171C92.5001 20.5244 92.2766 20.3252 91.9839 20.2195C91.6912 20.1057 91.3416 20.0488 90.9351 20.0488C90.6749 20.0488 90.3944 20.0772 90.0936 20.1341C89.801 20.1911 89.5449 20.2602 89.3253 20.3415L89.5205 20C89.553 20.122 89.5774 20.2764 89.5936 20.4634C89.6099 20.6423 89.618 20.8293 89.618 21.0244V25.8537H88.4961Z" fill="#009CBC"/>
<defs>
<linearGradient id="paint0_linear_214_5971" x1="10.9999" y1="4.49992" x2="77.9999" y2="43.4999" gradientUnits="userSpaceOnUse">
<stop stop-color="#FFE700"/>
<stop offset="1" stop-color="#FDF8C8"/>
</linearGradient>
<linearGradient id="paint1_linear_214_5971" x1="10.9999" y1="4.49992" x2="77.9999" y2="43.4999" gradientUnits="userSpaceOnUse">
<stop stop-color="#FFE700"/>
<stop offset="1" stop-color="#FDF8C8"/>
</linearGradient>
</defs>
</svg>
